<svg xmlns="http://www.w3.org/2000/svg" viewBox="0 0 171.3 274.48"><defs><style>.cls-1{fill:#fff;}</style></defs><g id="Layer_2" data-name="Layer 2"><g id="Layer_1-2" data-name="Layer 1"><path class="cls-1" d="M37.08,21.33h-20c-2.61,0-2.79-2.25-2.79-4.14a2.83,2.83,0,0,1,2.45-2.85c.11,0,.22,0,.34,0H50V0H17.1A17.22,17.22,0,0,0,.26,14.34,16.78,16.78,0,0,0,0,17.19v1.26A17.23,17.23,0,0,0,17.1,35.64h20c2.61,0,2.88,2.25,2.88,4.14a2.89,2.89,0,0,1-2.54,2.84,1.86,1.86,0,0,1-.34,0H.37V57H37.08A17.14,17.14,0,0,0,53.92,42.62a16.57,16.57,0,0,0,.26-2.84V38.52A17.17,17.17,0,0,0,37.08,21.33Z"/><path class="cls-1" d="M97.48,14.34V28.62c0,6.66-4.47,13.08-11.13,14h-3.3c-6.65-.92-11.13-7.34-11.13-14V.13H57.79V28.62a29.43,29.43,0,0,0,3.55,14C65.89,51,74.43,57,84.7,57S103.51,51,108.06,42.62a29.43,29.43,0,0,0,3.55-14V.13H97.48Z"/><path class="cls-1" d="M143.45.13a26.53,26.53,0,0,0-23.29,14.21,29.43,29.43,0,0,0-3.62,14.14V57h14.12V28.48c0-7.2,5.23-14.13,12.79-14.13s12.77,6.93,12.77,14.13V57h14.13V28.48a29.43,29.43,0,0,0-3.62-14.14A26.53,26.53,0,0,0,143.45.13Z"/><path class="cls-1" d="M31.59,145.27H0v56.52H14.13V187.45H31.74a20.94,20.94,0,0,0,21.18-20.66,19.12,19.12,0,0,0-1.59-7.62A21.23,21.23,0,0,0,31.59,145.27Zm0,29H14.13V159.16H31.59c4.32,0,7.2,3.94,7.2,7.62S35.91,174.31,31.59,174.31Z"/><path class="cls-1" d="M62.49,159.16a29.74,29.74,0,0,0-3.62,14.19,29.37,29.37,0,0,0,3.61,14.09c4.59,8.4,13.18,14.35,23.48,14.35h24.58V187.48H86a9.1,9.1,0,0,1-.91,0,12.7,12.7,0,0,1-10.16-7H98.83V166.15H74.89a12.91,12.91,0,0,1,10.17-7q.45,0,.9,0h24.58V144.82H86C75.67,144.82,67.09,150.75,62.49,159.16Z"/><path class="cls-1" d="M121.24,231.85a29.43,29.43,0,0,0,0,28.28c4.6,8.4,13.18,14.35,23.48,14.35h24.58V260.17H144.7c-.3,0-.61,0-.9,0a12.73,12.73,0,0,1-10.17-7h23.94V238.84H133.63a12.93,12.93,0,0,1,10.18-7c.29,0,.59,0,.89,0h24.58V217.51H144.7C134.41,217.51,125.83,223.44,121.24,231.85Z"/><path class="cls-1" d="M143.49,144.82a27.72,27.72,0,0,0-24.2,14.34,28.8,28.8,0,0,0,0,28.28,27.49,27.49,0,0,0,48.29,0,28.94,28.94,0,0,0,0-28.28A27.6,27.6,0,0,0,143.49,144.82Zm0,42.62a14.14,14.14,0,1,1,13.81-14.1A14,14,0,0,1,143.49,187.44Z"/><path class="cls-1" d="M79.36,260.13a2.78,2.78,0,0,1-2.44-2.75V217.51H62.61v39.87a16.64,16.64,0,0,0,.24,2.75,17.08,17.08,0,0,0,16.86,14.35h30.83V260.17H79.71A2.09,2.09,0,0,1,79.36,260.13Z"/><path class="cls-1" d="M31.59,218H0v56.52H14.13V260.14H31.74a20.94,20.94,0,0,0,21.18-20.66,19.12,19.12,0,0,0-1.59-7.62A21.23,21.23,0,0,0,31.59,218Zm0,29H14.13V231.85H31.59c4.32,0,7.2,3.94,7.2,7.62S35.91,247,31.59,247Z"/><path class="cls-1" d="M37.08,93h-20c-2.61,0-2.79-2.25-2.79-4.14A2.82,2.82,0,0,1,16.76,86a1.86,1.86,0,0,1,.34,0H50V71.68H17.1A17.22,17.22,0,0,0,.26,86,16.57,16.57,0,0,0,0,88.87v1.26a17.23,17.23,0,0,0,17.1,17.19h20c2.61,0,2.88,2.25,2.88,4.14a2.89,2.89,0,0,1-2.54,2.84,1.86,1.86,0,0,1-.34,0H.37v14.31H37.08A17.14,17.14,0,0,0,53.92,114.3a16.57,16.57,0,0,0,.26-2.84V110.2A17.17,17.17,0,0,0,37.08,93Z"/><path class="cls-1" d="M85.71,128.65h25.07V114.34H85.71c-.3,0-.6,0-.9,0a12.71,12.71,0,0,1-10.17-7h25.43V93H74.64a12.91,12.91,0,0,1,10.18-7,8.83,8.83,0,0,1,.89,0h25.07V71.68H85.71c-10.29,0-18.86,5.93-23.46,14.35a29.67,29.67,0,0,0-3.62,14.18,29.37,29.37,0,0,0,3.61,14.09C66.83,122.71,75.41,128.65,85.71,128.65Z"/><polygon class="cls-1" points="116.54 71.68 116.54 86.03 136.38 86.03 136.38 114.3 136.38 128.65 150.51 128.65 150.51 114.3 150.51 86.03 170.35 86.03 170.35 71.68 116.54 71.68"/></g></g></svg>