<svg xmlns="http://www.w3.org/2000/svg" viewBox="0 0 330.86 128.65"><defs><style>.cls-1{fill:#131313;}</style></defs><g id="Layer_2" data-name="Layer 2"><g id="Layer_3" data-name="Layer 3"><path class="cls-1" d="M37.08,21.33h-20c-2.61,0-2.79-2.25-2.79-4.14a2.83,2.83,0,0,1,2.45-2.85c.11,0,.22,0,.34,0H50V0H17.1A17.22,17.22,0,0,0,.26,14.34,16.78,16.78,0,0,0,0,17.19v1.26A17.23,17.23,0,0,0,17.1,35.64h20c2.61,0,2.88,2.25,2.88,4.14a2.89,2.89,0,0,1-2.54,2.84,1.86,1.86,0,0,1-.34,0H.37V57H37.08A17.14,17.14,0,0,0,53.92,42.62a16.57,16.57,0,0,0,.26-2.84V38.52A17.17,17.17,0,0,0,37.08,21.33Z"/><path class="cls-1" d="M214.4,21.33h-20c-2.61,0-2.79-2.25-2.79-4.14a2.83,2.83,0,0,1,2.44-2.85c.12,0,.23,0,.35,0h32.85V0H194.42a17.21,17.21,0,0,0-16.84,14.34,16.78,16.78,0,0,0-.26,2.85v1.26a17.23,17.23,0,0,0,17.1,17.19h20c2.61,0,2.88,2.25,2.88,4.14a2.89,2.89,0,0,1-2.54,2.84,2,2,0,0,1-.34,0H177.68V57H214.4a17.14,17.14,0,0,0,16.84-14.35,16.57,16.57,0,0,0,.26-2.84V38.52A17.17,17.17,0,0,0,214.4,21.33Z"/><path class="cls-1" d="M262.18,57h23.58V42.66H262.18c-.3,0-.6,0-.9,0a12.7,12.7,0,0,1-10.16-7h23.93V21.33H251.12a12.91,12.91,0,0,1,10.17-7c.3,0,.59,0,.89,0h23.58V0H262.18c-10.29,0-18.86,5.93-23.46,14.34a29.74,29.74,0,0,0-3.62,14.19,29.37,29.37,0,0,0,3.61,14.09C243.3,51,251.88,57,262.18,57Z"/><polygon class="cls-1" points="291.17 0 291.17 14.35 303.95 14.35 303.95 42.62 303.95 56.97 318.08 56.97 318.08 42.62 318.08 14.35 330.86 14.35 330.86 0 291.17 0"/><path class="cls-1" d="M98,14.34V28.62c0,6.66-4.47,13.08-11.13,14h-3.3c-6.66-.92-11.13-7.34-11.13-14V.13H58.26V28.62a29.43,29.43,0,0,0,3.55,14C66.36,51,74.9,57,85.17,57S104,51,108.53,42.62a29.43,29.43,0,0,0,3.55-14V.13H98Z"/><path class="cls-1" d="M143.65.13C133.43.13,124.93,6,120.36,14.34a29.54,29.54,0,0,0-3.62,14.14V57h14.13V28.48c0-7.2,5.22-14.13,12.78-14.13s12.78,6.93,12.78,14.13V57h14.13V28.48a29.54,29.54,0,0,0-3.62-14.14C162.37,6,153.87.13,143.65.13Z"/><path class="cls-1" d="M31.59,72.13H0v56.52H14.13V114.31H31.74A20.94,20.94,0,0,0,52.92,93.64,19,19,0,0,0,51.33,86,21.22,21.22,0,0,0,31.59,72.13Zm0,29H14.13V86H31.59c4.32,0,7.2,3.93,7.2,7.61S35.91,101.17,31.59,101.17Z"/><path class="cls-1" d="M251.85,114.3a2.78,2.78,0,0,1-2.44-2.75V71.68H235.1v39.87a16.64,16.64,0,0,0,.24,2.75,17.08,17.08,0,0,0,16.86,14.35h27.08V114.34H252.2A2.09,2.09,0,0,1,251.85,114.3Z"/><path class="cls-1" d="M282.81,86a29.67,29.67,0,0,0-3.62,14.18,29.37,29.37,0,0,0,3.61,14.09,26.76,26.76,0,0,0,23.48,14.35h24.58V114.34H306.28a9.1,9.1,0,0,1-.91,0,12.68,12.68,0,0,1-10.16-7h23.94V93H295.21a12.88,12.88,0,0,1,10.17-7c.3,0,.6,0,.9,0h24.58V71.68H306.28C296,71.68,287.41,77.61,282.81,86Z"/><path class="cls-1" d="M61.89,86a29.37,29.37,0,0,0,0,28.27c4.59,8.41,13.17,14.35,23.47,14.35h24.58V114.34H85.35c-.3,0-.6,0-.9,0a12.68,12.68,0,0,1-10.17-7H98.22V93H74.28a12.9,12.9,0,0,1,10.18-7,8.7,8.7,0,0,1,.89,0h24.58V71.68H85.35C75.06,71.68,66.49,77.61,61.89,86Z"/><path class="cls-1" d="M208.91,72.13H177.32v56.52h14.13V114.31h17.61a20.94,20.94,0,0,0,21.18-20.66A19,19,0,0,0,228.65,86,21.22,21.22,0,0,0,208.91,72.13Zm0,29H191.45V86h17.46c4.32,0,7.2,3.93,7.2,7.61S213.23,101.17,208.91,101.17Z"/><path class="cls-1" d="M142.74,71.68A27.7,27.7,0,0,0,118.55,86a28.78,28.78,0,0,0,0,28.27,27.49,27.49,0,0,0,48.29,0,28.92,28.92,0,0,0,0-28.27A27.59,27.59,0,0,0,142.74,71.68Zm0,42.62a14.14,14.14,0,1,1,13.82-14.1A14,14,0,0,1,142.74,114.3Z"/></g></g></svg>