<svg xmlns="http://www.w3.org/2000/svg" viewBox="0 0 993.05 415.27"><defs><style>.cls-1{fill:#f7e8cb;}.cls-2,.cls-4{fill:#ed4518;}.cls-3{fill:#ddd0bc;}.cls-4{stroke:#ed4518;}.cls-12,.cls-4{stroke-linecap:round;stroke-linejoin:round;stroke-width:0.72px;}.cls-12,.cls-5{fill:#282726;}.cls-6{fill:#996d58;}.cls-7{fill:#7f5336;}.cls-8{fill:#f2e8d7;}.cls-9{fill:#dd3919;}.cls-10{fill:#fff4e6;}.cls-11{fill:none;stroke-width:1.44px;}.cls-11,.cls-12{stroke:#282726;}</style></defs><g id="Layer_2" data-name="Layer 2"><g id="Layer_2-2" data-name="Layer 2"><rect class="cls-1" width="993.05" height="415.27"/><rect class="cls-2" x="280.72" y="97.89" width="431.33" height="3.4"/><path class="cls-2" d="M712.26,101.49H280.52V97.68H712.26Zm-431.33-.41H711.84v-3H280.93Z"/><rect class="cls-3" x="281.95" y="112.29" width="112.8" height="3.4" rx="0.23"/><path class="cls-3" d="M394.59,117.13H282.12a1.62,1.62,0,0,1-1.61-1.61v-3.06a1.62,1.62,0,0,1,1.61-1.61H394.59a1.62,1.62,0,0,1,1.61,1.61v3.06A1.62,1.62,0,0,1,394.59,117.13ZM283.4,114.25H393.31v-.51H283.4Z"/><rect class="cls-3" x="281.95" y="126.72" width="112.8" height="3.4" rx="0.23"/><path class="cls-3" d="M394.59,131.56H282.12a1.62,1.62,0,0,1-1.61-1.61v-3.06a1.62,1.62,0,0,1,1.61-1.61H394.59a1.62,1.62,0,0,1,1.61,1.61V130A1.62,1.62,0,0,1,394.59,131.56ZM283.4,128.67H393.31v-.51H283.4Z"/><rect class="cls-3" x="281.95" y="141.14" width="112.8" height="3.4" rx="0.23"/><path class="cls-3" d="M394.59,146H282.12a1.62,1.62,0,0,1-1.61-1.61v-3.06a1.62,1.62,0,0,1,1.61-1.61H394.59a1.62,1.62,0,0,1,1.61,1.61v3.06A1.62,1.62,0,0,1,394.59,146ZM283.4,143.1H393.31v-.51H283.4Z"/><rect class="cls-3" x="281.95" y="155.57" width="112.8" height="3.4" rx="0.23"/><path class="cls-3" d="M394.59,160.41H282.12a1.62,1.62,0,0,1-1.61-1.61v-3.06a1.62,1.62,0,0,1,1.61-1.61H394.59a1.62,1.62,0,0,1,1.61,1.61v3.06A1.62,1.62,0,0,1,394.59,160.41ZM283.4,157.52H393.31V157H283.4Z"/><rect class="cls-4" x="505.1" y="228.65" width="37.63" height="7.94"/><rect class="cls-4" x="547.05" y="228.65" width="164.67" height="7.94"/><rect class="cls-4" x="349.2" y="228.65" width="151.57" height="7.94"/><rect class="cls-4" x="281.05" y="228.65" width="63.82" height="7.94"/><path class="cls-5" d="M477.31,159.69a.73.73,0,0,1-.72-.72V111.88a.72.72,0,1,1,1.44,0V159A.72.72,0,0,1,477.31,159.69Z"/><circle class="cls-1" cx="436.25" cy="137.24" r="20.37"/><path class="cls-3" d="M436.25,158.33a21.09,21.09,0,1,1,21.09-21.09A21.11,21.11,0,0,1,436.25,158.33Zm0-40.73a19.65,19.65,0,1,0,19.65,19.64A19.66,19.66,0,0,0,436.25,117.6Z"/><path class="cls-5" d="M449.17,159.38a1.41,1.41,0,0,1-.73-2.61l.11-.07a1.41,1.41,0,0,1,1.49,2.39l-.13.08A1.43,1.43,0,0,1,449.17,159.38ZM422.7,159a1.4,1.4,0,0,1-.77-.24l-.14-.08a1.41,1.41,0,0,1,1.58-2.34l.11.07a1.41,1.41,0,0,1-.78,2.59Zm35.74-9.88a1.36,1.36,0,0,1-.61-.14,1.42,1.42,0,0,1-.66-1.88l.07-.13a1.41,1.41,0,1,1,2.54,1.22l-.07.13A1.39,1.39,0,0,1,458.44,149.08Zm-44.69-.7a1.41,1.41,0,0,1-1.29-.85l-.06-.13a1.41,1.41,0,1,1,2.59-1.13l.06.14a1.41,1.41,0,0,1-.73,1.85A1.46,1.46,0,0,1,413.75,148.38Zm46.93-13a1.41,1.41,0,0,1-1.4-1.24l0-.22a1.41,1.41,0,1,1,2.8-.36l0,.25a1.41,1.41,0,0,1-1.23,1.56ZM412,134.64l-.22,0a1.41,1.41,0,0,1-1.18-1.61l0-.16a1.41,1.41,0,1,1,2.78.47l0,.12A1.41,1.41,0,0,1,412,134.64Zm43.17-12a1.43,1.43,0,0,1-1.08-.51L454,122a1.41,1.41,0,1,1,2.15-1.82l.1.12a1.41,1.41,0,0,1-1.08,2.31Zm-37.27-.52a1.38,1.38,0,0,1-.93-.35,1.41,1.41,0,0,1-.12-2l.1-.12a1.41,1.41,0,0,1,2.1,1.89l-.09.09A1.4,1.4,0,0,1,417.85,122.1Zm25.74-7.17a1.52,1.52,0,0,1-.42-.06l-.13,0a1.41,1.41,0,0,1,.82-2.7l.15.05a1.41,1.41,0,0,1-.42,2.75Zm-14-.19a1.41,1.41,0,0,1-.38-2.77l.14,0a1.41,1.41,0,1,1,.76,2.72l-.14,0A1.65,1.65,0,0,1,429.59,114.74Z"/><path class="cls-1" d="M449.17,159.6a1.62,1.62,0,0,1-1.39-.78,1.65,1.65,0,0,1-.19-1.23,1.6,1.6,0,0,1,.73-1l.11-.07a1.65,1.65,0,0,1,2.25.52,1.63,1.63,0,0,1-.52,2.24l-.14.09A1.58,1.58,0,0,1,449.17,159.6Zm.12-2.9a1.23,1.23,0,0,0-.63.18l-.11.07a1.18,1.18,0,0,0-.53.74,1.14,1.14,0,0,0,.14.9,1.2,1.2,0,0,0,1.63.39l.14-.08a1.16,1.16,0,0,0,.52-.74,1.14,1.14,0,0,0-.15-.9A1.18,1.18,0,0,0,449.29,156.7Zm-26.59,2.48a1.69,1.69,0,0,1-.9-.27l-.13-.09a1.69,1.69,0,0,1-.69-1,1.63,1.63,0,0,1,2.52-1.66l.1.07a1.62,1.62,0,0,1,.46,2.26A1.64,1.64,0,0,1,422.7,159.18Zm-.11-2.9a1.18,1.18,0,0,0-1,.52,1.13,1.13,0,0,0-.18.89,1.12,1.12,0,0,0,.5.76l.13.09a1.18,1.18,0,0,0,1.82-1.23,1.13,1.13,0,0,0-.51-.75l-.11-.08A1.24,1.24,0,0,0,422.59,156.28Zm35.85-7a1.56,1.56,0,0,1-.7-.16A1.63,1.63,0,0,1,457,147l.06-.14A1.65,1.65,0,0,1,458,146a1.62,1.62,0,0,1,1.24.07,1.65,1.65,0,0,1,.77,2.18l-.07.13A1.63,1.63,0,0,1,458.44,149.3Zm.07-3a1.12,1.12,0,0,0-.4.07,1.18,1.18,0,0,0-.68.6l-.06.14a1.19,1.19,0,0,0,.56,1.58,1.22,1.22,0,0,0,1.59-.55l.06-.13a1.2,1.2,0,0,0-.56-1.59A1.16,1.16,0,0,0,458.51,146.35Zm-44.76,2.25a1.64,1.64,0,0,1-1.49-1l-.06-.13a1.64,1.64,0,0,1,0-1.25,1.67,1.67,0,0,1,.87-.9,1.63,1.63,0,0,1,2.14.85l.06.13a1.64,1.64,0,0,1,0,1.25,1.62,1.62,0,0,1-.87.89A1.58,1.58,0,0,1,413.75,148.6Zm-.06-2.95a1.19,1.19,0,0,0-1.1.75,1.15,1.15,0,0,0,0,.91l.05.13a1.21,1.21,0,0,0,1.57.62,1.17,1.17,0,0,0,.63-.66,1.15,1.15,0,0,0,0-.91l0-.13A1.2,1.2,0,0,0,413.69,145.65Zm47-10a1.62,1.62,0,0,1-1.62-1.43l0-.22a1.61,1.61,0,0,1,.32-1.2,1.58,1.58,0,0,1,1.08-.62,1.57,1.57,0,0,1,1.2.32,1.59,1.59,0,0,1,.63,1.08l0,.25A1.61,1.61,0,0,1,462,135a1.63,1.63,0,0,1-1.09.61Zm0-3.05h-.16a1.16,1.16,0,0,0-.79.45,1.18,1.18,0,0,0-.24.88l0,.22a1.19,1.19,0,0,0,2.12.6,1.19,1.19,0,0,0,.24-.87l0-.26a1.21,1.21,0,0,0-.45-.79A1.18,1.18,0,0,0,460.66,132.57ZM412,134.86l-.25,0a1.63,1.63,0,0,1-1.36-1.86l0-.16a1.63,1.63,0,0,1,3.21.53l0,.13A1.61,1.61,0,0,1,412,134.86Zm0-3a1.2,1.2,0,0,0-1.18,1l0,.16a1.21,1.21,0,0,0,1,1.36,1.21,1.21,0,0,0,1.36-1l0-.13a1.19,1.19,0,0,0-1-1.37Zm43.15-9.06a1.63,1.63,0,0,1-1.25-.59l-.09-.1a1.63,1.63,0,1,1,2.49-2.1l.1.12a1.62,1.62,0,0,1-.21,2.29A1.64,1.64,0,0,1,455.12,122.84Zm-.09-2.93a1.16,1.16,0,0,0-.77.28,1.2,1.2,0,0,0-.14,1.68l.08.1a1.22,1.22,0,0,0,1.68.15,1.19,1.19,0,0,0,.16-1.67l-.1-.12A1.2,1.2,0,0,0,455,119.91Zm-37.18,2.41a1.57,1.57,0,0,1-1.07-.41,1.55,1.55,0,0,1-.55-1.12,1.57,1.57,0,0,1,.4-1.17l.11-.12a1.63,1.63,0,0,1,2.3-.13,1.66,1.66,0,0,1,.54,1.13,1.63,1.63,0,0,1-.42,1.17l-.09.1A1.61,1.61,0,0,1,417.85,122.32Zm.1-2.92a1.2,1.2,0,0,0-.89.39l-.1.12a1.18,1.18,0,0,0,.11,1.67,1.23,1.23,0,0,0,1.68-.1l.08-.1a1.19,1.19,0,0,0,.31-.86A1.19,1.19,0,0,0,418,119.4Zm25.64-4.25a1.61,1.61,0,0,1-.49-.07l-.13,0a1.65,1.65,0,0,1-1-.8,1.62,1.62,0,0,1-.12-1.24,1.67,1.67,0,0,1,.79-1,1.63,1.63,0,0,1,1.24-.12l.16,0a1.63,1.63,0,0,1-.49,3.18Zm-.14-2.86A1.19,1.19,0,0,0,442.4,114a1.22,1.22,0,0,0,.7.58l.13,0a1.2,1.2,0,0,0,1.49-.78,1.18,1.18,0,0,0-.77-1.49l-.15,0A1.48,1.48,0,0,0,443.45,112.29ZM429.59,115a1.64,1.64,0,0,1-1.57-1.19,1.67,1.67,0,0,1,.15-1.24,1.61,1.61,0,0,1,1-.77l.14,0a1.67,1.67,0,0,1,1.24.15,1.63,1.63,0,0,1,.62,2.22,1.61,1.61,0,0,1-1,.77l-.14,0A1.61,1.61,0,0,1,429.59,115Zm.14-2.86a1.19,1.19,0,0,0-.32.05l-.14,0a1.21,1.21,0,0,0-.72.57,1.18,1.18,0,0,0-.1.9,1.21,1.21,0,0,0,1.46.83l.14,0a1.21,1.21,0,0,0,.72-.57,1.22,1.22,0,0,0,.11-.9,1.21,1.21,0,0,0-.57-.72A1.19,1.19,0,0,0,429.73,112.1Z"/><circle class="cls-6" cx="436.25" cy="137.24" r="16.68"/><path class="cls-7" d="M436.25,154.65a17.41,17.41,0,1,1,17.41-17.41A17.43,17.43,0,0,1,436.25,154.65Zm0-33.37a16,16,0,1,0,16,16A16,16,0,0,0,436.25,121.28Z"/><circle class="cls-7" cx="436.25" cy="137.24" r="11.14"/><path class="cls-8" d="M442.05,135.31a1.52,1.52,0,0,1-1.17-.55l-.1-.11a1.53,1.53,0,0,1,.18-2.15,1.51,1.51,0,0,1,2.15.18l.11.13A1.52,1.52,0,0,1,443,135,1.54,1.54,0,0,1,442.05,135.31Z"/><path class="cls-3" d="M563.17,151.21H534.66a1.33,1.33,0,0,1-1.33-1.33v-28.5a1.33,1.33,0,0,1,1.33-1.33h28.51a1.33,1.33,0,0,1,1.33,1.33v28.5A1.33,1.33,0,0,1,563.17,151.21Zm-27.68-2.16h26.84V122.21H535.49Z"/><rect class="cls-7" x="540.76" y="127.47" width="16.31" height="16.31" rx="0.19"/><path class="cls-7" d="M556.93,145.14h-16a1.49,1.49,0,0,1-1.49-1.49v-16a1.49,1.49,0,0,1,1.49-1.49h16a1.49,1.49,0,0,1,1.49,1.49v16A1.49,1.49,0,0,1,556.93,145.14Zm-14.82-2.7h13.61V128.82H542.11Z"/><path class="cls-3" d="M523.5,151.21H495a1.33,1.33,0,0,1-1.33-1.33v-28.5a1.33,1.33,0,0,1,1.33-1.33H523.5a1.33,1.33,0,0,1,1.33,1.33v28.5A1.33,1.33,0,0,1,523.5,151.21Zm-27.68-2.16h26.85V122.21H495.82Z"/><rect class="cls-9" x="501.09" y="127.47" width="16.31" height="16.31" rx="0.19"/><path class="cls-9" d="M517.26,145.14h-16a1.49,1.49,0,0,1-1.49-1.49v-16a1.49,1.49,0,0,1,1.49-1.49h16a1.49,1.49,0,0,1,1.49,1.49v16A1.49,1.49,0,0,1,517.26,145.14Zm-14.82-2.7h13.61V128.82H502.44Z"/><path class="cls-3" d="M710.79,151.26H575.7a1.57,1.57,0,0,1-1.57-1.58v-28.1A1.57,1.57,0,0,1,575.7,120H710.79a1.57,1.57,0,0,1,1.57,1.58v28.1A1.57,1.57,0,0,1,710.79,151.26ZM576.2,149.19H710.29V122.07H576.2Z"/><rect class="cls-5" x="586.48" y="133.93" width="113.54" height="3.4" rx="0.23"/><path class="cls-5" d="M699.85,138.06H586.64a.9.9,0,0,1-.9-.9V134.1a.9.9,0,0,1,.9-.9H699.85a.9.9,0,0,1,.9.9v3.06A.9.9,0,0,1,699.85,138.06Zm-112.64-1.47H699.28v-1.92H587.21Z"/><rect class="cls-9" x="619.24" y="127.44" width="48.01" height="16.38" rx="0.33"/><path class="cls-9" d="M667,144.78H619.48a1.2,1.2,0,0,1-1.2-1.2v-15.9a1.2,1.2,0,0,1,1.2-1.2H667a1.2,1.2,0,0,1,1.2,1.2v15.9A1.2,1.2,0,0,1,667,144.78Zm-46.81-1.91h46.09V128.4H620.2Z"/><rect class="cls-2" x="638.99" y="127.44" width="8.51" height="16.38" rx="0.14"/><path class="cls-2" d="M647.4,144.22h-8.31a.5.5,0,0,1-.5-.5V127.54a.5.5,0,0,1,.5-.5h8.31a.5.5,0,0,1,.5.5v16.18A.5.5,0,0,1,647.4,144.22Zm-8-.8h7.71V127.84h-7.71Z"/><path class="cls-1" d="M643.25,143.33a.63.63,0,0,1-.64-.63V128.57a.64.64,0,1,1,1.27,0V142.7A.63.63,0,0,1,643.25,143.33Z"/><path class="cls-10" d="M280.75,314.42a3.17,3.17,0,0,0,3.17,3.17h16.31a3.17,3.17,0,0,0,3.17-3.17V245.15H280.75Z"/><path class="cls-10" d="M306.33,314.42a3.17,3.17,0,0,0,3.17,3.17h16.31a3.17,3.17,0,0,0,3.17-3.17V245.15H306.33Z"/><path class="cls-10" d="M331.91,314.42a3.17,3.17,0,0,0,3.16,3.17h16.32a3.17,3.17,0,0,0,3.16-3.17V245.15H331.91Z"/><path class="cls-10" d="M357.48,314.42a3.18,3.18,0,0,0,3.17,3.17H377a3.17,3.17,0,0,0,3.17-3.17V245.15H357.48Z"/><path class="cls-10" d="M383.06,314.42a3.17,3.17,0,0,0,3.17,3.17h16.31a3.17,3.17,0,0,0,3.17-3.17V245.15H383.06Z"/><path class="cls-10" d="M408.64,314.42a3.17,3.17,0,0,0,3.17,3.17h16.31a3.18,3.18,0,0,0,3.17-3.17V245.15H408.64Z"/><path class="cls-10" d="M434.22,314.42a3.17,3.17,0,0,0,3.16,3.17h16.31a3.17,3.17,0,0,0,3.17-3.17V245.15H434.22Z"/><path class="cls-10" d="M459.79,314.42a3.17,3.17,0,0,0,3.17,3.17h16.31a3.17,3.17,0,0,0,3.17-3.17V245.15H459.79Z"/><path class="cls-10" d="M485.37,314.42a3.17,3.17,0,0,0,3.17,3.17h16.31a3.17,3.17,0,0,0,3.17-3.17V245.15H485.37Z"/><path class="cls-10" d="M511,314.42a3.17,3.17,0,0,0,3.16,3.17h16.32a3.17,3.17,0,0,0,3.16-3.17V245.15H511Z"/><path class="cls-10" d="M536.52,314.42a3.17,3.17,0,0,0,3.17,3.17H556a3.17,3.17,0,0,0,3.17-3.17V245.15H536.52Z"/><path class="cls-10" d="M562.1,314.42a3.17,3.17,0,0,0,3.17,3.17h16.31a3.17,3.17,0,0,0,3.17-3.17V245.15H562.1Z"/><path class="cls-10" d="M587.68,314.42a3.17,3.17,0,0,0,3.17,3.17h16.31a3.18,3.18,0,0,0,3.17-3.17V245.15H587.68Z"/><path class="cls-10" d="M613.25,314.42a3.18,3.18,0,0,0,3.17,3.17h16.31a3.17,3.17,0,0,0,3.17-3.17V245.15H613.25Z"/><path class="cls-10" d="M638.83,314.42a3.17,3.17,0,0,0,3.17,3.17h16.31a3.17,3.17,0,0,0,3.17-3.17V245.15H638.83Z"/><path class="cls-10" d="M664.31,314.42a3.17,3.17,0,0,0,3.17,3.17h16.31a3.18,3.18,0,0,0,3.17-3.17V245.15H664.31Z"/><path class="cls-10" d="M712.53,244.19v1H689.88v69.27a3.18,3.18,0,0,0,3.17,3.17h16.31a3.17,3.17,0,0,0,3.17-3.17V244.19Z"/><path class="cls-5" d="M299.22,287.92a1.25,1.25,0,0,0,1.25,1.25h8.79a1.25,1.25,0,0,0,1.25-1.25V245.15H299.22Z"/><path class="cls-5" d="M324.79,287.92a1.26,1.26,0,0,0,1.26,1.25h8.79a1.25,1.25,0,0,0,1.25-1.25V245.15h-11.3Z"/><path class="cls-5" d="M376,287.92a1.25,1.25,0,0,0,1.25,1.25H386a1.25,1.25,0,0,0,1.25-1.25V245.15H376Z"/><path class="cls-5" d="M401.53,287.92a1.25,1.25,0,0,0,1.25,1.25h8.79a1.25,1.25,0,0,0,1.25-1.25V245.15H401.53Z"/><path class="cls-5" d="M427.1,287.92a1.25,1.25,0,0,0,1.26,1.25h8.78a1.25,1.25,0,0,0,1.26-1.25V245.15H427.1Z"/><path class="cls-5" d="M478.26,287.92a1.25,1.25,0,0,0,1.25,1.25h8.79a1.25,1.25,0,0,0,1.25-1.25V245.15H478.26Z"/><path class="cls-5" d="M503.83,287.92a1.26,1.26,0,0,0,1.26,1.25h8.79a1.25,1.25,0,0,0,1.25-1.25V245.15h-11.3Z"/><path class="cls-5" d="M657.19,287.92a1.26,1.26,0,0,0,1.26,1.25h8.79a1.25,1.25,0,0,0,1.25-1.25V245.15h-11.3Z"/><path class="cls-5" d="M682.77,287.92a1.25,1.25,0,0,0,1.26,1.25h8.78a1.26,1.26,0,0,0,1.26-1.25V245.15h-11.3Z"/><path class="cls-5" d="M555,287.92a1.25,1.25,0,0,0,1.25,1.25H565a1.25,1.25,0,0,0,1.25-1.25V245.15H555Z"/><path class="cls-5" d="M580.57,287.92a1.25,1.25,0,0,0,1.25,1.25h8.79a1.25,1.25,0,0,0,1.25-1.25V245.15H580.57Z"/><path class="cls-5" d="M606.14,287.92a1.25,1.25,0,0,0,1.26,1.25h8.78a1.25,1.25,0,0,0,1.26-1.25V245.15h-11.3Z"/><path class="cls-11" d="M282.2,183.24v-5.67h17.29v5.67h-5.66v20.21h-6V183.24Z"/><path class="cls-11" d="M302.06,203.45V177.57H308v10.15h8.63V177.57h5.93v25.88h-5.93V193.38H308v10.07Z"/><path class="cls-11" d="M325.83,203.45V177.57h15.91v5.67h-10v4.48h9.09v5.66h-9.09v4.41h10v5.66Z"/><path class="cls-11" d="M349.82,199l4-3.72a7.22,7.22,0,0,0,2.39,2.48,5.37,5.37,0,0,0,2.85.82,3.79,3.79,0,0,0,2.39-.69,2.35,2.35,0,0,0,.88-2,1.56,1.56,0,0,0-.5-1.16,3.64,3.64,0,0,0-1.31-.83l-1.86-.69c-.7-.25-1.41-.49-2.13-.73a10.77,10.77,0,0,1-2.12-1,10.61,10.61,0,0,1-1.86-1.39,5.61,5.61,0,0,1-1.31-2,7.4,7.4,0,0,1-.5-2.83,7.76,7.76,0,0,1,.59-3,8.4,8.4,0,0,1,1.65-2.59,7.78,7.78,0,0,1,2.7-1.84,8.93,8.93,0,0,1,3.58-.7,10.24,10.24,0,0,1,5,1.29,10.9,10.9,0,0,1,4,4l-4,3.73a8.59,8.59,0,0,0-2.34-2.63,4.39,4.39,0,0,0-2.59-.89,2.91,2.91,0,0,0-2,.67,2.36,2.36,0,0,0-.81,1.92,1.56,1.56,0,0,0,.41,1,3.63,3.63,0,0,0,1.09.8,15.29,15.29,0,0,0,1.57.65l1.87.65c.65.23,1.31.49,2,.76a10.32,10.32,0,0,1,1.87,1,8.72,8.72,0,0,1,1.57,1.38,5.49,5.49,0,0,1,1.08,1.9,7.74,7.74,0,0,1,.4,2.52,7.24,7.24,0,0,1-.65,3,8.63,8.63,0,0,1-1.81,2.6,8.53,8.53,0,0,1-2.91,1.84A11.06,11.06,0,0,1,349.82,199Z"/><path class="cls-11" d="M372.05,197.44a13.62,13.62,0,0,1,0-13.57,13.4,13.4,0,0,1,4.93-4.93,13.54,13.54,0,0,1,13.56,0,13.45,13.45,0,0,1,4.94,4.94,13.54,13.54,0,0,1,0,13.56,13.47,13.47,0,0,1-4.93,4.93,13.54,13.54,0,0,1-18.5-4.93Zm4.12-6.79a7.7,7.7,0,0,0,2.23,5.58,7.26,7.26,0,0,0,5.37,2.29,7.14,7.14,0,0,0,5.33-2.29,8.11,8.11,0,0,0,0-11.15,7.15,7.15,0,0,0-5.33-2.3,7.23,7.23,0,0,0-5.36,2.3A7.7,7.7,0,0,0,376.17,190.65Z"/><path class="cls-11" d="M399.84,193.61v-16h5.93v16a4.7,4.7,0,0,0,1.32,3.37,4.17,4.17,0,0,0,3.13,1.39,4.25,4.25,0,0,0,3.15-1.39,4.65,4.65,0,0,0,1.35-3.37v-16h5.93v16A10.39,10.39,0,0,1,410.22,204a10.1,10.1,0,0,1-4-.83,10.22,10.22,0,0,1-5.53-5.53A10.17,10.17,0,0,1,399.84,193.61Z"/><path class="cls-11" d="M423.88,203.45V177.57h5.93l9.67,14.66V177.57h5.93v25.88h-5.93l-9.67-14.69v14.69Z"/><path class="cls-11" d="M448.68,203.45V177.57h9a12.67,12.67,0,0,1,5,1,12.7,12.7,0,0,1,6.87,6.89,13,13,0,0,1-.71,11.52,12.87,12.87,0,0,1-4.7,4.71,12.58,12.58,0,0,1-6.48,1.73Zm5.93-5.66h2.73a7.28,7.28,0,1,0,0-14.55h-2.73Z"/><path class="cls-11" d="M479.6,197.44a13.53,13.53,0,0,1,18.49-18.5,13.43,13.43,0,0,1,4.93,4.94,13.54,13.54,0,0,1,0,13.56,13.52,13.52,0,0,1-23.42,0Zm4.12-6.79a7.7,7.7,0,0,0,2.23,5.58,7.24,7.24,0,0,0,5.36,2.29,7.16,7.16,0,0,0,5.34-2.29,8.14,8.14,0,0,0,0-11.15,7.36,7.36,0,0,0-10.69,0A7.66,7.66,0,0,0,483.72,190.65Z"/><path class="cls-11" d="M507.38,203.45V177.57h15.91v5.67h-10v4.48h9.09v5.66h-9.09v10.07Z"/><path class="cls-12" d="M710.08,216.75h-171a1.35,1.35,0,0,1-1.34-1.35V166.71a1.34,1.34,0,0,1,1.34-1.35h171a1.34,1.34,0,0,1,1.35,1.35V215.4A1.35,1.35,0,0,1,710.08,216.75ZM539.51,215H709.66V167.13H539.51Z"/><path class="cls-5" d="M565.39,183.73h-12v-6.66h32.19v6.66h-12V204h-8.2Z"/><path class="cls-5" d="M616.93,177.19c4.16.77,6.18,2.91,6.74,7.23a55.89,55.89,0,0,1,.24,6.54c0,6.51-.68,9.13-3,11-1.61,1.37-3.87,2-7.79,2.18-1.45.08-5,.12-7.67.12-6.43,0-9.7-.12-11.31-.44-3-.53-4.73-1.66-5.74-3.64s-1.29-4-1.29-9.85c0-4.52.08-5.66.56-7.47.77-2.87,2.35-4.41,5.38-5.29,2.26-.65,4.72-.81,11.83-.81C612.64,176.79,615,176.87,616.93,177.19Zm-20.12,7.15c-1.09.85-1.41,2.18-1.41,6.06s.32,5.41,1.33,6.26,2.42,1.05,8.6,1.05c7.07,0,8.53-.24,9.46-1.53.76-1,1-2.35,1-5.94,0-6.79-.12-6.87-10.21-6.87C599.52,183.37,597.86,183.57,596.81,184.34Z"/><path class="cls-5" d="M638.82,194.68l-15.39-17.61h10.46L643,188.22l9-11.15h10.26l-15.19,17.61V204h-8.24Z"/><path class="cls-5" d="M670.29,195.41c.08,1.86.28,2.3,1.25,2.66a23.8,23.8,0,0,0,5.49.41c9.49,0,10.63-.29,10.63-2.51a2.14,2.14,0,0,0-1.38-2.18c-.89-.28-.89-.28-5.13-.32h-7.43c-5,0-7-.28-8.76-1.17-1.94-1-2.83-3.15-2.83-6.83,0-4.85,1.37-6.9,5.25-7.83,2.18-.57,5.33-.77,11.23-.77,9.45,0,11.63.24,13.57,1.49s2.46,2.91,2.46,6.95h-8c0-2.34-.81-2.67-6.1-2.67-2.63,0-6.14.09-7.43.17-2.19.16-2.91.72-2.91,2.26a2,2,0,0,0,1.73,2.14,13.35,13.35,0,0,0,3.32.2h7.63c.73,0,4.36.12,5.73.2,5.13.24,7.15,2.51,7.15,7.92,0,5-1.45,7.15-5.41,8a67.6,67.6,0,0,1-11.87.68c-9.33,0-11.39-.2-13.78-1.41-1.65-.81-2.5-2.87-2.5-6.06,0-.24,0-.77,0-1.33Z"/></g></g></svg>